<svg class="marks" width="713" height="277" viewBox="0 0 713 277" version="1.1" xmlns="http://www.w3.org/2000/svg" xmlns:xlink="http://www.w3.org/1999/xlink"><g transform="translate(107,5)"><g class="mark-group role-frame root"><g transform="translate(0,0)"><path class="background" d="M0.5,0.5h600v225h-600Z" style="fill: none; stroke: #ddd;"></path><g><g class="mark-group role-axis"><g transform="translate(0.5,225.5)"><path class="background" d="M0,0h0v0h0Z" style="pointer-events: none; fill: none;"></path><g><g class="mark-rule role-axis-grid" style="pointer-events: none;"><line transform="translate(0,0)" x2="0" y2="-225" style="fill: none; stroke: #ddd; stroke-width: 1; opacity: 1;"></line><line transform="translate(43,0)" x2="0" y2="-225" style="fill: none; stroke: #ddd; stroke-width: 1; opacity: 1;"></line><line transform="translate(86,0)" x2="0" y2="-225" style="fill: none; stroke: #ddd; stroke-width: 1; opacity: 1;"></line><line transform="translate(129,0)" x2="0" y2="-225" style="fill: none; stroke: #ddd; stroke-width: 1; opacity: 1;"></line><line transform="translate(171,0)" x2="0" y2="-225" style="fill: none; stroke: #ddd; stroke-width: 1; opacity: 1;"></line><line transform="translate(214,0)" x2="0" y2="-225" style="fill: none; stroke: #ddd; stroke-width: 1; opacity: 1;"></line><line transform="translate(257,0)" x2="0" y2="-225" style="fill: none; stroke: #ddd; stroke-width: 1; opacity: 1;"></line><line transform="translate(300,0)" x2="0" y2="-225" style="fill: none; stroke: #ddd; stroke-width: 1; opacity: 1;"></line><line transform="translate(343,0)" x2="0" y2="-225" style="fill: none; stroke: #ddd; stroke-width: 1; opacity: 1;"></line><line transform="translate(386,0)" x2="0" y2="-225" style="fill: none; stroke: #ddd; stroke-width: 1; opacity: 1;"></line><line transform="translate(429,0)" x2="0" y2="-225" style="fill: none; stroke: #ddd; stroke-width: 1; opacity: 1;"></line><line transform="translate(471,0)" x2="0" y2="-225" style="fill: none; stroke: #ddd; stroke-width: 1; opacity: 1;"></line><line transform="translate(514,0)" x2="0" y2="-225" style="fill: none; stroke: #ddd; stroke-width: 1; opacity: 1;"></line><line transform="translate(557,0)" x2="0" y2="-225" style="fill: none; stroke: #ddd; stroke-width: 1; opacity: 1;"></line><line transform="translate(600,0)" x2="0" y2="-225" style="fill: none; stroke: #ddd; stroke-width: 1; opacity: 1;"></line></g></g></g></g><g class="mark-rect role-mark layer_0_marks"><path d="M0,167.910447761194h565.7142857142857v23.507462686567163h-565.7142857142857Z" style="fill: #4c78a8;"></path><path d="M0,100.74626865671641h593.4v23.507462686567163h-593.4Z" style="fill: #4c78a8;"></path><path d="M0,33.5820895522388h559.9714285714286v23.507462686567163h-559.9714285714286Z" style="fill: #4c78a8;"></path><path d="M0,67.1641791044776h591.4285714285714v23.507462686567163h-591.4285714285714Z" style="fill: #4c78a8;"></path><path d="M0,134.3283582089552h591.4285714285714v23.507462686567163h-591.4285714285714Z" style="fill: #4c78a8;"></path></g><g class="mark-group role-axis"><g transform="translate(0.5,225.5)"><path class="background" d="M0,0h0v0h0Z" style="pointer-events: none; fill: none;"></path><g><g class="mark-rule role-axis-tick" style="pointer-events: none;"><line transform="translate(0,0)" x2="0" y2="5" style="fill: none; stroke: #888; stroke-width: 1; opacity: 1;"></line><line transform="translate(43,0)" x2="0" y2="5" style="fill: none; stroke: #888; stroke-width: 1; opacity: 1;"></line><line transform="translate(86,0)" x2="0" y2="5" style="fill: none; stroke: #888; stroke-width: 1; opacity: 1;"></line><line transform="translate(129,0)" x2="0" y2="5" style="fill: none; stroke: #888; stroke-width: 1; opacity: 1;"></line><line transform="translate(171,0)" x2="0" y2="5" style="fill: none; stroke: #888; stroke-width: 1; opacity: 1;"></line><line transform="translate(214,0)" x2="0" y2="5" style="fill: none; stroke: #888; stroke-width: 1; opacity: 1;"></line><line transform="translate(257,0)" x2="0" y2="5" style="fill: none; stroke: #888; stroke-width: 1; opacity: 1;"></line><line transform="translate(300,0)" x2="0" y2="5" style="fill: none; stroke: #888; stroke-width: 1; opacity: 1;"></line><line transform="translate(343,0)" x2="0" y2="5" style="fill: none; stroke: #888; stroke-width: 1; opacity: 1;"></line><line transform="translate(386,0)" x2="0" y2="5" style="fill: none; stroke: #888; stroke-width: 1; opacity: 1;"></line><line transform="translate(429,0)" x2="0" y2="5" style="fill: none; stroke: #888; stroke-width: 1; opacity: 1;"></line><line transform="translate(471,0)" x2="0" y2="5" style="fill: none; stroke: #888; stroke-width: 1; opacity: 1;"></line><line transform="translate(514,0)" x2="0" y2="5" style="fill: none; stroke: #888; stroke-width: 1; opacity: 1;"></line><line transform="translate(557,0)" x2="0" y2="5" style="fill: none; stroke: #888; stroke-width: 1; opacity: 1;"></line><line transform="translate(600,0)" x2="0" y2="5" style="fill: none; stroke: #888; stroke-width: 1; opacity: 1;"></line></g><g class="mark-text role-axis-label" style="pointer-events: none;"><text text-anchor="start" transform="translate(0,18)" style="font-family: sans-serif; font-size: 14px; fill: #000; opacity: 1;">0.0</text><text text-anchor="middle" transform="translate(42.857142857142854,18)" style="font-family: sans-serif; font-size: 14px; fill: #000; opacity: 1;">0.5</text><text text-anchor="middle" transform="translate(85.71428571428571,18)" style="font-family: sans-serif; font-size: 14px; fill: #000; opacity: 1;">1.0</text><text text-anchor="middle" transform="translate(128.57142857142856,18)" style="font-family: sans-serif; font-size: 14px; fill: #000; opacity: 1;">1.5</text><text text-anchor="middle" transform="translate(171.42857142857142,18)" style="font-family: sans-serif; font-size: 14px; fill: #000; opacity: 1;">2.0</text><text text-anchor="middle" transform="translate(214.28571428571428,18)" style="font-family: sans-serif; font-size: 14px; fill: #000; opacity: 1;">2.5</text><text text-anchor="middle" transform="translate(257.1428571428571,18)" style="font-family: sans-serif; font-size: 14px; fill: #000; opacity: 1;">3.0</text><text text-anchor="middle" transform="translate(300,18)" style="font-family: sans-serif; font-size: 14px; fill: #000; opacity: 1;">3.5</text><text text-anchor="middle" transform="translate(342.85714285714283,18)" style="font-family: sans-serif; font-size: 14px; fill: #000; opacity: 1;">4.0</text><text text-anchor="middle" transform="translate(385.7142857142857,18)" style="font-family: sans-serif; font-size: 14px; fill: #000; opacity: 1;">4.5</text><text text-anchor="middle" transform="translate(428.57142857142856,18)" style="font-family: sans-serif; font-size: 14px; fill: #000; opacity: 1;">5.0</text><text text-anchor="middle" transform="translate(471.42857142857144,18)" style="font-family: sans-serif; font-size: 14px; fill: #000; opacity: 1;">5.5</text><text text-anchor="middle" transform="translate(514.2857142857142,18)" style="font-family: sans-serif; font-size: 14px; fill: #000; opacity: 1;">6.0</text><text text-anchor="middle" transform="translate(557.1428571428571,18)" style="font-family: sans-serif; font-size: 14px; fill: #000; opacity: 1;">6.5</text><text text-anchor="end" transform="translate(600,18)" style="font-family: sans-serif; font-size: 14px; fill: #000; opacity: 1;">7.0</text></g><g class="mark-rule role-axis-domain" style="pointer-events: none;"><line transform="translate(0,0)" x2="600" y2="0" style="fill: none; stroke: #888; stroke-width: 1; opacity: 1;"></line></g><g class="mark-text role-axis-title" style="pointer-events: none;"><text text-anchor="middle" transform="translate(300,37)" style="font-family: sans-serif; font-size: 14px; font-weight: normal; fill: #000; opacity: 1;">My mean</text></g></g></g></g><g class="mark-group role-axis"><g transform="translate(0.5,0.5)"><path class="background" d="M0,0h0v0h0Z" style="pointer-events: none; fill: none;"></path><g><g class="mark-rule role-axis-tick" style="pointer-events: none;"><line transform="translate(0,44)" x2="-5" y2="0" style="fill: none; stroke: #888; stroke-width: 1; opacity: 1;"></line><line transform="translate(0,78)" x2="-5" y2="0" style="fill: none; stroke: #888; stroke-width: 1; opacity: 1;"></line><line transform="translate(0,111)" x2="-5" y2="0" style="fill: none; stroke: #888; stroke-width: 1; opacity: 1;"></line><line transform="translate(0,145)" x2="-5" y2="0" style="fill: none; stroke: #888; stroke-width: 1; opacity: 1;"></line><line transform="translate(0,179)" x2="-5" y2="0" style="fill: none; stroke: #888; stroke-width: 1; opacity: 1;"></line></g><g class="mark-text role-axis-label" style="pointer-events: none;"><text text-anchor="end" transform="translate(-7,48.33582089552238)" style="font-family: sans-serif; font-size: 14px; fill: #000; opacity: 1;">Availability</text><text text-anchor="end" transform="translate(-7,81.91791044776117)" style="font-family: sans-serif; font-size: 14px; fill: #000; opacity: 1;">Discussion</text><text text-anchor="end" transform="translate(-7,115.49999999999999)" style="font-family: sans-serif; font-size: 14px; fill: #000; opacity: 1;">Enthusiasm</text><text text-anchor="end" transform="translate(-7,149.08208955223878)" style="font-family: sans-serif; font-size: 14px; fill: #000; opacity: 1;">Helpfulness</text><text text-anchor="end" transform="translate(-7,182.6641791044776)" style="font-family: sans-serif; font-size: 14px; fill: #000; opacity: 1;">Knowledge</text></g><g class="mark-rule role-axis-domain" style="pointer-events: none;"><line transform="translate(0,0)" x2="0" y2="225" style="fill: none; stroke: #888; stroke-width: 1; opacity: 1;"></line></g><g class="mark-text role-axis-title" style="pointer-events: none;"><text text-anchor="middle" transform="translate(-85.0999984741211,112.5) rotate(-90) translate(0,-3)" style="font-family: sans-serif; font-size: 14px; font-weight: normal; fill: #000; opacity: 1;">Attribute</text></g></g></g></g></g></g></g></g></svg>