<svg class="marks" width="816" height="277" viewBox="0 0 816 277" version="1.1" xmlns="http://www.w3.org/2000/svg" xmlns:xlink="http://www.w3.org/1999/xlink"><g transform="translate(210,5)"><g class="mark-group role-frame root"><g transform="translate(0,0)"><path class="background" d="M0.5,0.5h600v225h-600Z" style="fill: none; stroke: #ddd;"></path><g><g class="mark-group role-axis"><g transform="translate(0.5,225.5)"><path class="background" d="M0,0h0v0h0Z" style="pointer-events: none; fill: none;"></path><g><g class="mark-rule role-axis-grid" style="pointer-events: none;"><line transform="translate(0,0)" x2="0" y2="-225" style="fill: none; stroke: #ddd; stroke-width: 1; opacity: 1;"></line><line transform="translate(60,0)" x2="0" y2="-225" style="fill: none; stroke: #ddd; stroke-width: 1; opacity: 1;"></line><line transform="translate(120,0)" x2="0" y2="-225" style="fill: none; stroke: #ddd; stroke-width: 1; opacity: 1;"></line><line transform="translate(180,0)" x2="0" y2="-225" style="fill: none; stroke: #ddd; stroke-width: 1; opacity: 1;"></line><line transform="translate(240,0)" x2="0" y2="-225" style="fill: none; stroke: #ddd; stroke-width: 1; opacity: 1;"></line><line transform="translate(300,0)" x2="0" y2="-225" style="fill: none; stroke: #ddd; stroke-width: 1; opacity: 1;"></line><line transform="translate(360,0)" x2="0" y2="-225" style="fill: none; stroke: #ddd; stroke-width: 1; opacity: 1;"></line><line transform="translate(420,0)" x2="0" y2="-225" style="fill: none; stroke: #ddd; stroke-width: 1; opacity: 1;"></line><line transform="translate(480,0)" x2="0" y2="-225" style="fill: none; stroke: #ddd; stroke-width: 1; opacity: 1;"></line><line transform="translate(540,0)" x2="0" y2="-225" style="fill: none; stroke: #ddd; stroke-width: 1; opacity: 1;"></line><line transform="translate(600,0)" x2="0" y2="-225" style="fill: none; stroke: #ddd; stroke-width: 1; opacity: 1;"></line></g></g></g></g><g class="mark-rect role-mark layer_0_marks"><path d="M0,167.910447761194h574.8v23.507462686567163h-574.8Z" style="fill: #4c78a8;"></path><path d="M0,134.3283582089552h586.8v23.507462686567163h-586.8Z" style="fill: #4c78a8;"></path><path d="M0,67.1641791044776h562.8000000000001v23.507462686567163h-562.8000000000001Z" style="fill: #4c78a8;"></path><path d="M0,100.74626865671641h572.4v23.507462686567163h-572.4Z" style="fill: #4c78a8;"></path><path d="M0,33.5820895522388h584.4v23.507462686567163h-584.4Z" style="fill: #4c78a8;"></path></g><g class="mark-rule role-mark layer_1_marks"><line transform="translate(550.8,179.6641791044776)" x2="-550.8" y2="0" style="fill: none; stroke: red; stroke-width: 2.5;"></line><line transform="translate(579.6,146.08208955223878)" x2="-579.6" y2="0" style="fill: none; stroke: red; stroke-width: 2.5;"></line><line transform="translate(540,78.91791044776117)" x2="-540" y2="0" style="fill: none; stroke: red; stroke-width: 2.5;"></line><line transform="translate(547.1999999999999,112.49999999999999)" x2="-547.1999999999999" y2="0" style="fill: none; stroke: red; stroke-width: 2.5;"></line><line transform="translate(540,45.33582089552238)" x2="-540" y2="0" style="fill: none; stroke: red; stroke-width: 2.5;"></line></g><g class="mark-group role-axis"><g transform="translate(0.5,225.5)"><path class="background" d="M0,0h0v0h0Z" style="pointer-events: none; fill: none;"></path><g><g class="mark-rule role-axis-tick" style="pointer-events: none;"><line transform="translate(0,0)" x2="0" y2="5" style="fill: none; stroke: #888; stroke-width: 1; opacity: 1;"></line><line transform="translate(60,0)" x2="0" y2="5" style="fill: none; stroke: #888; stroke-width: 1; opacity: 1;"></line><line transform="translate(120,0)" x2="0" y2="5" style="fill: none; stroke: #888; stroke-width: 1; opacity: 1;"></line><line transform="translate(180,0)" x2="0" y2="5" style="fill: none; stroke: #888; stroke-width: 1; opacity: 1;"></line><line transform="translate(240,0)" x2="0" y2="5" style="fill: none; stroke: #888; stroke-width: 1; opacity: 1;"></line><line transform="translate(300,0)" x2="0" y2="5" style="fill: none; stroke: #888; stroke-width: 1; opacity: 1;"></line><line transform="translate(360,0)" x2="0" y2="5" style="fill: none; stroke: #888; stroke-width: 1; opacity: 1;"></line><line transform="translate(420,0)" x2="0" y2="5" style="fill: none; stroke: #888; stroke-width: 1; opacity: 1;"></line><line transform="translate(480,0)" x2="0" y2="5" style="fill: none; stroke: #888; stroke-width: 1; opacity: 1;"></line><line transform="translate(540,0)" x2="0" y2="5" style="fill: none; stroke: #888; stroke-width: 1; opacity: 1;"></line><line transform="translate(600,0)" x2="0" y2="5" style="fill: none; stroke: #888; stroke-width: 1; opacity: 1;"></line></g><g class="mark-text role-axis-label" style="pointer-events: none;"><text text-anchor="start" transform="translate(0,18)" style="font-family: sans-serif; font-size: 14px; fill: #000; opacity: 1;">0.0</text><text text-anchor="middle" transform="translate(60,18)" style="font-family: sans-serif; font-size: 14px; fill: #000; opacity: 1;">0.5</text><text text-anchor="middle" transform="translate(120,18)" style="font-family: sans-serif; font-size: 14px; fill: #000; opacity: 1;">1.0</text><text text-anchor="middle" transform="translate(180,18)" style="font-family: sans-serif; font-size: 14px; fill: #000; opacity: 1;">1.5</text><text text-anchor="middle" transform="translate(240,18)" style="font-family: sans-serif; font-size: 14px; fill: #000; opacity: 1;">2.0</text><text text-anchor="middle" transform="translate(300,18)" style="font-family: sans-serif; font-size: 14px; fill: #000; opacity: 1;">2.5</text><text text-anchor="middle" transform="translate(360,18)" style="font-family: sans-serif; font-size: 14px; fill: #000; opacity: 1;">3.0</text><text text-anchor="middle" transform="translate(420,18)" style="font-family: sans-serif; font-size: 14px; fill: #000; opacity: 1;">3.5</text><text text-anchor="middle" transform="translate(480,18)" style="font-family: sans-serif; font-size: 14px; fill: #000; opacity: 1;">4.0</text><text text-anchor="middle" transform="translate(540,18)" style="font-family: sans-serif; font-size: 14px; fill: #000; opacity: 1;">4.5</text><text text-anchor="end" transform="translate(600,18)" style="font-family: sans-serif; font-size: 14px; fill: #000; opacity: 1;">5.0</text></g><g class="mark-rule role-axis-domain" style="pointer-events: none;"><line transform="translate(0,0)" x2="600" y2="0" style="fill: none; stroke: #888; stroke-width: 1; opacity: 1;"></line></g><g class="mark-text role-axis-title" style="pointer-events: none;"><text text-anchor="middle" transform="translate(300,37)" style="font-family: sans-serif; font-size: 14px; font-weight: normal; fill: #000; opacity: 1;">My median (blue bar), Dept 5-yr median (red line)</text></g></g></g></g><g class="mark-group role-axis"><g transform="translate(0.5,0.5)"><path class="background" d="M0,0h0v0h0Z" style="pointer-events: none; fill: none;"></path><g><g class="mark-rule role-axis-tick" style="pointer-events: none;"><line transform="translate(0,44)" x2="-5" y2="0" style="fill: none; stroke: #888; stroke-width: 1; opacity: 1;"></line><line transform="translate(0,78)" x2="-5" y2="0" style="fill: none; stroke: #888; stroke-width: 1; opacity: 1;"></line><line transform="translate(0,111)" x2="-5" y2="0" style="fill: none; stroke: #888; stroke-width: 1; opacity: 1;"></line><line transform="translate(0,145)" x2="-5" y2="0" style="fill: none; stroke: #888; stroke-width: 1; opacity: 1;"></line><line transform="translate(0,179)" x2="-5" y2="0" style="fill: none; stroke: #888; stroke-width: 1; opacity: 1;"></line></g><g class="mark-text role-axis-label" style="pointer-events: none;"><text text-anchor="end" transform="translate(-7,48.33582089552238)" style="font-family: sans-serif; font-size: 14px; fill: #000; opacity: 1;">Availability</text><text text-anchor="end" transform="translate(-7,81.91791044776117)" style="font-family: sans-serif; font-size: 14px; fill: #000; opacity: 1;">Clarity</text><text text-anchor="end" transform="translate(-7,115.49999999999999)" style="font-family: sans-serif; font-size: 14px; fill: #000; opacity: 1;">Discussion</text><text text-anchor="end" transform="translate(-7,149.08208955223878)" style="font-family: sans-serif; font-size: 14px; fill: #000; opacity: 1;">Knowledge of subject matter</text><text text-anchor="end" transform="translate(-7,182.6641791044776)" style="font-family: sans-serif; font-size: 14px; fill: #000; opacity: 1;">Overall effectiveness</text></g><g class="mark-rule role-axis-domain" style="pointer-events: none;"><line transform="translate(0,0)" x2="0" y2="225" style="fill: none; stroke: #888; stroke-width: 1; opacity: 1;"></line></g><g class="mark-text role-axis-title" style="pointer-events: none;"><text text-anchor="middle" transform="translate(-188.51666259765625,112.5) rotate(-90) translate(0,-3)" style="font-family: sans-serif; font-size: 14px; font-weight: normal; fill: #000; opacity: 1;">Attribute</text></g></g></g></g></g></g></g></g></svg>