<svg class="marks" width="713" height="223" viewBox="0 0 713 223" version="1.1" xmlns="http://www.w3.org/2000/svg" xmlns:xlink="http://www.w3.org/1999/xlink"><g transform="translate(132,5)"><g class="mark-group role-frame root"><g transform="translate(0,0)"><path class="background" d="M0.5,0.5h575v175h-575Z" style="fill: none; stroke: #ddd;"></path><g><g class="mark-group role-axis"><g transform="translate(0.5,175.5)"><path class="background" d="M0,0h0v0h0Z" style="pointer-events: none; fill: none;"></path><g><g class="mark-rule role-axis-grid" style="pointer-events: none;"><line transform="translate(0,0)" x2="0" y2="-175" style="fill: none; stroke: #ddd; stroke-width: 1; opacity: 1;"></line><line transform="translate(58,0)" x2="0" y2="-175" style="fill: none; stroke: #ddd; stroke-width: 1; opacity: 1;"></line><line transform="translate(115,0)" x2="0" y2="-175" style="fill: none; stroke: #ddd; stroke-width: 1; opacity: 1;"></line><line transform="translate(173,0)" x2="0" y2="-175" style="fill: none; stroke: #ddd; stroke-width: 1; opacity: 1;"></line><line transform="translate(230,0)" x2="0" y2="-175" style="fill: none; stroke: #ddd; stroke-width: 1; opacity: 1;"></line><line transform="translate(288,0)" x2="0" y2="-175" style="fill: none; stroke: #ddd; stroke-width: 1; opacity: 1;"></line><line transform="translate(345,0)" x2="0" y2="-175" style="fill: none; stroke: #ddd; stroke-width: 1; opacity: 1;"></line><line transform="translate(403,0)" x2="0" y2="-175" style="fill: none; stroke: #ddd; stroke-width: 1; opacity: 1;"></line><line transform="translate(460,0)" x2="0" y2="-175" style="fill: none; stroke: #ddd; stroke-width: 1; opacity: 1;"></line><line transform="translate(518,0)" x2="0" y2="-175" style="fill: none; stroke: #ddd; stroke-width: 1; opacity: 1;"></line><line transform="translate(575,0)" x2="0" y2="-175" style="fill: none; stroke: #ddd; stroke-width: 1; opacity: 1;"></line></g></g></g></g><g class="mark-rect role-mark layer_0_marks"><path d="M0,37.23404255319149h540.5v26.063829787234038h-540.5Z" style="fill: #4c78a8;"></path><path d="M0,111.70212765957447h547.4v26.063829787234038h-547.4Z" style="fill: #4c78a8;"></path><path d="M0,74.46808510638297h563.5v26.063829787234038h-563.5Z" style="fill: #4c78a8;"></path></g><g class="mark-rule role-mark layer_1_marks"><line transform="translate(532.4499999999999,50.265957446808514)" x2="-532.4499999999999" y2="0" style="fill: none; stroke: red;"></line><line transform="translate(517.5,124.73404255319149)" x2="-517.5" y2="0" style="fill: none; stroke: red;"></line><line transform="translate(530.15,87.49999999999999)" x2="-530.15" y2="0" style="fill: none; stroke: red;"></line></g><g class="mark-group role-axis"><g transform="translate(0.5,175.5)"><path class="background" d="M0,0h0v0h0Z" style="pointer-events: none; fill: none;"></path><g><g class="mark-rule role-axis-tick" style="pointer-events: none;"><line transform="translate(0,0)" x2="0" y2="5" style="fill: none; stroke: #888; stroke-width: 1; opacity: 1;"></line><line transform="translate(58,0)" x2="0" y2="5" style="fill: none; stroke: #888; stroke-width: 1; opacity: 1;"></line><line transform="translate(115,0)" x2="0" y2="5" style="fill: none; stroke: #888; stroke-width: 1; opacity: 1;"></line><line transform="translate(173,0)" x2="0" y2="5" style="fill: none; stroke: #888; stroke-width: 1; opacity: 1;"></line><line transform="translate(230,0)" x2="0" y2="5" style="fill: none; stroke: #888; stroke-width: 1; opacity: 1;"></line><line transform="translate(288,0)" x2="0" y2="5" style="fill: none; stroke: #888; stroke-width: 1; opacity: 1;"></line><line transform="translate(345,0)" x2="0" y2="5" style="fill: none; stroke: #888; stroke-width: 1; opacity: 1;"></line><line transform="translate(403,0)" x2="0" y2="5" style="fill: none; stroke: #888; stroke-width: 1; opacity: 1;"></line><line transform="translate(460,0)" x2="0" y2="5" style="fill: none; stroke: #888; stroke-width: 1; opacity: 1;"></line><line transform="translate(518,0)" x2="0" y2="5" style="fill: none; stroke: #888; stroke-width: 1; opacity: 1;"></line><line transform="translate(575,0)" x2="0" y2="5" style="fill: none; stroke: #888; stroke-width: 1; opacity: 1;"></line></g><g class="mark-text role-axis-label" style="pointer-events: none;"><text text-anchor="start" transform="translate(0,15)" style="font-family: sans-serif; font-size: 10px; fill: #000; opacity: 1;">0.0</text><text text-anchor="middle" transform="translate(57.5,15)" style="font-family: sans-serif; font-size: 10px; fill: #000; opacity: 1;">0.5</text><text text-anchor="middle" transform="translate(115,15)" style="font-family: sans-serif; font-size: 10px; fill: #000; opacity: 1;">1.0</text><text text-anchor="middle" transform="translate(172.5,15)" style="font-family: sans-serif; font-size: 10px; fill: #000; opacity: 1;">1.5</text><text text-anchor="middle" transform="translate(230,15)" style="font-family: sans-serif; font-size: 10px; fill: #000; opacity: 1;">2.0</text><text text-anchor="middle" transform="translate(287.5,15)" style="font-family: sans-serif; font-size: 10px; fill: #000; opacity: 1;">2.5</text><text text-anchor="middle" transform="translate(345,15)" style="font-family: sans-serif; font-size: 10px; fill: #000; opacity: 1;">3.0</text><text text-anchor="middle" transform="translate(402.5,15)" style="font-family: sans-serif; font-size: 10px; fill: #000; opacity: 1;">3.5</text><text text-anchor="middle" transform="translate(460,15)" style="font-family: sans-serif; font-size: 10px; fill: #000; opacity: 1;">4.0</text><text text-anchor="middle" transform="translate(517.5,15)" style="font-family: sans-serif; font-size: 10px; fill: #000; opacity: 1;">4.5</text><text text-anchor="end" transform="translate(575,15)" style="font-family: sans-serif; font-size: 10px; fill: #000; opacity: 1;">5.0</text></g><g class="mark-rule role-axis-domain" style="pointer-events: none;"><line transform="translate(0,0)" x2="575" y2="0" style="fill: none; stroke: #888; stroke-width: 1; opacity: 1;"></line></g><g class="mark-text role-axis-title" style="pointer-events: none;"><text text-anchor="middle" transform="translate(287.5,33)" style="font-family: sans-serif; font-size: 14px; font-weight: normal; fill: #000; opacity: 1;">My median (blue bar), Dept 5-yr median (red line)</text></g></g></g></g><g class="mark-group role-axis"><g transform="translate(0.5,0.5)"><path class="background" d="M0,0h0v0h0Z" style="pointer-events: none; fill: none;"></path><g><g class="mark-rule role-axis-tick" style="pointer-events: none;"><line transform="translate(0,49)" x2="-5" y2="0" style="fill: none; stroke: #888; stroke-width: 1; opacity: 1;"></line><line transform="translate(0,86)" x2="-5" y2="0" style="fill: none; stroke: #888; stroke-width: 1; opacity: 1;"></line><line transform="translate(0,124)" x2="-5" y2="0" style="fill: none; stroke: #888; stroke-width: 1; opacity: 1;"></line></g><g class="mark-text role-axis-label" style="pointer-events: none;"><text text-anchor="end" transform="translate(-7,52.265957446808514)" style="font-family: sans-serif; font-size: 10px; fill: #000; opacity: 1;">Knowledge &amp; Reality</text><text text-anchor="end" transform="translate(-7,89.49999999999999)" style="font-family: sans-serif; font-size: 10px; fill: #000; opacity: 1;">PPE</text><text text-anchor="end" transform="translate(-7,126.73404255319149)" style="font-family: sans-serif; font-size: 10px; fill: #000; opacity: 1;">Philosophy of Science</text></g><g class="mark-rule role-axis-domain" style="pointer-events: none;"><line transform="translate(0,0)" x2="0" y2="175" style="fill: none; stroke: #888; stroke-width: 1; opacity: 1;"></line></g><g class="mark-text role-axis-title" style="pointer-events: none;"><text text-anchor="middle" transform="translate(-110.26667022705078,87.5) rotate(-90) translate(0,-3)" style="font-family: sans-serif; font-size: 14px; font-weight: normal; fill: #000; opacity: 1;">course</text></g></g></g></g></g></g></g></g></svg>